{
  "asset": {
    "generator": "PMPM to GLTF Converter",
    "version": "2.0"
  },
  "scene": 0,
  "scenes": [
    {
      "nodes": [
        0
      ]
    }
  ],
  "nodes": [
    {
      "children": [1, 2, 3, 4, 5, 6, 7, 8, 9],
      "name": "Frame"
    },
    {
      "mesh": 0,
      "name": "Column1",
      "translation": [-2, 0, -2],
      "scale": [0.2, 5, 0.2]
    },
    {
      "mesh": 0,
      "name": "Column2",
      "translation": [2, 0, -2],
      "scale": [0.2, 5, 0.2]
    },
    {
      "mesh": 0,
      "name": "Column3",
      "translation": [-2, 0, 2],
      "scale": [0.2, 5, 0.2]
    },
    {
      "mesh": 0,
      "name": "Column4",
      "translation": [2, 0, 2],
      "scale": [0.2, 5, 0.2]
    },
    {
      "mesh": 0,
      "name": "Beam1",
      "translation": [0, 5, -2],
      "rotation": [0, 0, 0.7071, 0.7071],
      "scale": [0.2, 4, 0.2]
    },
    {
      "mesh": 0,
      "name": "Beam2",
      "translation": [0, 5, 2],
      "rotation": [0, 0, 0.7071, 0.7071],
      "scale": [0.2, 4, 0.2]
    },
    {
      "mesh": 0,
      "name": "Beam3",
      "translation": [-2, 5, 0],
      "rotation": [0.7071, 0, 0, 0.7071],
      "scale": [0.2, 4, 0.2]
    },
    {
      "mesh": 0,
      "name": "Beam4",
      "translation": [2, 5, 0],
      "rotation": [0.7071, 0, 0, 0.7071],
      "scale": [0.2, 4, 0.2]
    },
    {
      "mesh": 0,
      "name": "Roof",
      "translation": [0, 6, 0],
      "scale": [4.5, 0.2, 4.5]
    }
  ],
  "meshes": [
    {
      "primitives": [
        {
          "attributes": {
            "POSITION": 0,
            "NORMAL": 1
          },
          "indices": 2,
          "mode": 4,
          "material": 0
        }
      ],
      "name": "Cube"
    }
  ],
  "materials": [
    {
      "pbrMetallicRoughness": {
        "baseColorFactor": [
          0.6,
          0.6,
          0.6,
          1
        ],
        "metallicFactor": 0.1,
        "roughnessFactor": 0.7
      },
      "name": "Steel"
    }
  ],
  "accessors": [
    {
      "bufferView": 0,
      "componentType": 5126,
      "count": 24,
      "max": [
        1,
        1,
        1
      ],
      "min": [
        -1,
        -1,
        -1
      ],
      "type": "VEC3"
    },
    {
      "bufferView": 1,
      "componentType": 5126,
      "count": 24,
      "type": "VEC3"
    },
    {
      "bufferView": 2,
      "componentType": 5123,
      "count": 36,
      "type": "SCALAR"
    }
  ],
  "bufferViews": [
    {
      "buffer": 0,
      "byteLength": 288,
      "byteOffset": 0
    },
    {
      "buffer": 0,
      "byteLength": 288,
      "byteOffset": 288
    },
    {
      "buffer": 0,
      "byteLength": 72,
      "byteOffset": 576
    }
  ],
  "buffers": [
    {
      "byteLength": 648,
      "uri": "data:application/octet-stream;base64,"
    }
  ]
}
